# xmcd
#
# Track frame offsets:
#	179
#	38358
#	52227
#	63901
#	74309
#	88077
#	102932
#	115136
#	124670
#
# Disc length: 1792 seconds
# Revision: 3
# Processed by: cddbd v1.5.2PL0 Copyright (c) Steve Scherf et al.
# Submitted via: dBpowerAMP V12.0
#
DISCID=7606fe09
DTITLE=Johnny Cash - Complete Columbia Album Collection, Disc 8 [Blood, Sweat and Tears]
DYEAR=1963
DGENRE=Country
TTITLE0=The Legend of John Henry's Hammer
TTITLE1=Tell Him I'm Gone
TTITLE2=Another Man Done Gone
TTITLE3=Busted
TTITLE4=Casey Jones
TTITLE5=Nine Pound Hammer
TTITLE6=Chain Gang
TTITLE7=Waiting for a Train
TTITLE8=Roughneck
EXTD=
EXTT0=
EXTT1=
EXTT2=
EXTT3=
EXTT4=
EXTT5=
EXTT6=
EXTT7=
EXTT8=
PLAYORDER=
